<?xml version="1.0" standalone="no"?>
<!DOCTYPE svg PUBLIC "-//W3C//DTD SVG 20010904//EN"
 "http://www.w3.org/TR/2001/REC-SVG-20010904/DTD/svg10.dtd">
<svg version="1.0" xmlns="http://www.w3.org/2000/svg"
 width="180.000000pt" height="180.000000pt" viewBox="0 0 180.000000 180.000000"
 preserveAspectRatio="xMidYMid meet">
<metadata>
Created by potrace 1.14, written by Peter Selinger 2001-2017
</metadata>
<g transform="translate(0.000000,180.000000) scale(0.100000,-0.100000)"
fill="#000000" stroke="none">
<path d="M372 1778 c-84 -26 -94 -39 -87 -117 19 -208 106 -403 247 -552 112
-118 236 -187 430 -239 43 -12 88 -23 100 -26 30 -5 181 -31 233 -39 22 -3
128 -9 236 -12 l196 -6 0 383 c0 436 -2 450 -74 530 -26 29 -63 56 -95 70
l-53 23 -539 1 c-477 1 -546 -1 -594 -16z"/>
<path d="M52 946 l1 -455 56 36 c85 54 175 153 219 241 34 70 37 83 37 161 0
96 -9 121 -81 231 -37 57 -84 107 -201 213 l-31 29 0 -456z"/>
<path d="M919 636 c-2 -2 -29 -6 -60 -9 -228 -24 -520 -132 -737 -271 -80 -51
-81 -55 -59 -143 24 -90 102 -167 198 -193 60 -17 1199 -16 1260 0 54 15 108
49 144 92 52 62 58 90 61 270 3 150 2 167 -14 172 -36 11 -160 35 -217 41 -33
4 -63 9 -66 11 -4 2 -35 7 -70 10 -35 3 -68 8 -73 11 -9 6 -361 14 -367 9z"/>
</g>
</svg>
